<svg width="12" height="12" viewBox="0 0 12 12" fill="none" xmlns="http://www.w3.org/2000/svg">
<path d="M11.9671 4.30561C11.9294 4.19448 11.86 4.09683 11.7675 4.02473C11.6749 3.95264 11.5632 3.90927 11.4463 3.89998L8.02626 3.62877L6.54666 0.352577C6.49908 0.247478 6.42222 0.158322 6.32527 0.0957902C6.22833 0.033258 6.11541 0 6.00005 0C5.88469 0 5.77178 0.033258 5.67483 0.0957902C5.57789 0.158322 5.50103 0.247478 5.45345 0.352577L3.97265 3.62877L0.552633 3.89998C0.437631 3.90909 0.327694 3.95116 0.235988 4.02116C0.144282 4.09115 0.0746976 4.18609 0.0355686 4.29462C-0.00356045 4.40315 -0.0105746 4.52066 0.0153664 4.63307C0.0413074 4.74549 0.0991033 4.84804 0.181832 4.92845L2.70904 7.39219L1.81504 11.2636C1.78805 11.3808 1.79687 11.5033 1.84035 11.6154C1.88383 11.7274 1.95997 11.8239 2.0589 11.8922C2.15783 11.9604 2.27499 11.9974 2.39519 11.9983C2.51539 11.9993 2.63309 11.964 2.73304 11.8973L6.00065 9.72033L9.26707 11.8985C9.36921 11.9669 9.48991 12.0023 9.61284 11.9999C9.73577 11.9975 9.85499 11.9573 9.95436 11.8849C10.0537 11.8125 10.1285 11.7113 10.1684 11.5951C10.2084 11.4788 10.2117 11.353 10.1779 11.2348L9.07987 7.39459L11.8015 4.94525C11.8886 4.86677 11.9509 4.76448 11.9805 4.65102C12.0102 4.53755 12.0059 4.41788 11.9683 4.30681L11.9671 4.30561Z" fill="#FFB647"/>
</svg>
