<svg width="14" height="14" viewBox="0 0 14 14" fill="none" xmlns="http://www.w3.org/2000/svg">
<path d="M2.34999 12.85C2.28866 13.116 2.39532 13.3927 2.62066 13.548C2.73533 13.6267 2.86732 13.6667 2.99999 13.6667C3.12866 13.6667 3.25799 13.6294 3.36999 13.5547L6.99999 11.1347L10.63 13.5547C10.862 13.7094 11.166 13.7034 11.3933 13.5387C11.6187 13.374 11.718 13.0854 11.6413 12.8174L10.422 8.55069L13.446 5.82935C13.644 5.65135 13.7167 5.37202 13.6313 5.12002C13.5453 4.86802 13.318 4.69001 13.0527 4.66935L9.25199 4.36668L7.60733 0.726011C7.49999 0.486677 7.26199 0.333344 6.99999 0.333344C6.73799 0.333344 6.49999 0.486677 6.39266 0.725344L4.74799 4.36668L0.947324 4.66868C0.685991 4.68935 0.461324 4.86068 0.373324 5.10668C0.283991 5.35268 0.347991 5.62802 0.534658 5.81068L3.34399 8.54869L2.34999 12.85ZM6.99999 2.61935L8.36133 5.63335L8.75333 5.66468C8.75399 5.66468 8.75399 5.66468 8.75399 5.66468L11.402 5.87468L9.22133 7.83735C9.22066 7.83802 9.22066 7.83802 9.22066 7.83869L8.91199 8.11602L9.02599 8.51402C9.02599 8.51402 9.02599 8.51535 9.02599 8.51602L9.86133 11.4394L6.99999 9.53202V2.61935Z" fill="#FFB647"/>
</svg>
