<?xml version="1.0" encoding="utf-8"?>
<!-- Generator: Adobe Illustrator 25.0.1, SVG Export Plug-In . SVG Version: 6.00 Build 0)  -->
<svg version="1.1" id="Layer_1" xmlns="http://www.w3.org/2000/svg" xmlns:xlink="http://www.w3.org/1999/xlink" x="0px" y="0px"
	 viewBox="0 0 74.1 36" style="enable-background:new 0 0 74.1 36;" xml:space="preserve">
<style type="text/css">
	.st0{fill:#F9F9F9;}
</style>
<path class="st0" d="M23.2,29H9.7c-1.5,0-2.8-0.3-4-0.8c-1.2-0.5-2.2-1.3-3.1-2.2c-0.8-0.9-1.5-2.1-1.9-3.3C0.2,21.3,0,20,0,18.5
	c0-1.4,0.2-2.8,0.7-4.1c0.5-1.3,1.1-2.4,1.9-3.3c0.8-1,1.9-1.7,3.1-2.3C6.9,8.3,8.2,8,9.7,8h13.5v3H9.7c-1,0-2,0.2-2.8,0.6
	C6,12,5.4,12.5,4.8,13.2c-0.6,0.7-1,1.5-1.3,2.4C3.2,16.5,3,17.5,3,18.5c0,1,0.2,2,0.5,2.9c0.3,0.9,0.8,1.7,1.3,2.4
	C5.4,24.5,6,25,6.9,25.4C7.7,25.8,8.6,26,9.7,26h13.5V29z M74.1,23c0,0.8-0.2,1.6-0.5,2.4c-0.3,0.7-0.7,1.4-1.3,1.9
	c-0.5,0.5-1.2,1-1.9,1.3c-0.7,0.3-1.5,0.5-2.3,0.5H53.8v-3h14.2c0.4,0,0.8-0.1,1.2-0.2c0.4-0.2,0.7-0.4,1-0.6c0.3-0.3,0.5-0.6,0.6-1
	c0.2-0.4,0.2-0.8,0.2-1.2c0-0.4-0.1-0.8-0.2-1.2c-0.2-0.4-0.4-0.7-0.6-1c-0.3-0.3-0.6-0.5-1-0.6c-0.4-0.2-0.7-0.2-1.2-0.2H53.8v-3
	h11.2c0.4,0,0.8-0.1,1.2-0.2c0.4-0.2,0.7-0.4,1-0.6c0.3-0.3,0.5-0.6,0.6-1c0.2-0.4,0.2-0.8,0.2-1.2s-0.1-0.8-0.2-1.2
	c-0.2-0.4-0.4-0.7-0.6-1c-0.3-0.3-0.6-0.5-1-0.6c-0.4-0.2-0.7-0.2-1.2-0.2H52.3v18h-3V8h15.7c0.8,0,1.6,0.2,2.3,0.5
	c0.7,0.3,1.4,0.7,1.9,1.3c0.5,0.5,1,1.2,1.3,1.9c0.3,0.7,0.5,1.5,0.5,2.3c0,0.6-0.1,1.2-0.3,1.8c-0.2,0.6-0.4,1.1-0.7,1.6
	c0.6,0.2,1.1,0.5,1.6,0.9c0.5,0.4,0.9,0.8,1.3,1.3c0.4,0.5,0.6,1,0.8,1.6C74,21.7,74.1,22.3,74.1,23z"/>
<path class="st0" d="M33,17.5c-0.2,0-0.4,0.1-0.6,0.2c-0.2,0.1-0.3,0.3-0.4,0.5C32,18.3,32,18.5,32,18.7c0,0.2,0.1,0.4,0.3,0.5
	c0.1,0.1,0.3,0.2,0.5,0.3c0.2,0,0.4,0,0.6-0.1c0.2-0.1,0.4-0.2,0.5-0.4c0.1-0.2,0.2-0.4,0.2-0.6c0-0.3-0.1-0.5-0.3-0.7
	C33.6,17.6,33.3,17.5,33,17.5z M33,21.6c-0.2,0-0.4,0.1-0.6,0.2c-0.2,0.1-0.3,0.3-0.4,0.5C32,22.5,32,22.7,32,22.9
	c0,0.2,0.1,0.4,0.3,0.5c0.1,0.1,0.3,0.2,0.5,0.3c0.2,0,0.4,0,0.6-0.1c0.2-0.1,0.4-0.2,0.5-0.4c0.1-0.2,0.2-0.4,0.2-0.6
	c0-0.3-0.1-0.5-0.3-0.7C33.6,21.8,33.3,21.6,33,21.6z M33,13.2c-0.2,0-0.4,0.1-0.6,0.2c-0.2,0.1-0.3,0.3-0.4,0.5
	C32,14.1,32,14.3,32,14.5c0,0.2,0.1,0.4,0.3,0.5c0.1,0.1,0.3,0.2,0.5,0.3c0.2,0,0.4,0,0.6-0.1c0.2-0.1,0.4-0.2,0.5-0.4
	c0.1-0.2,0.2-0.4,0.2-0.6c0-0.3-0.1-0.5-0.3-0.7C33.6,13.4,33.3,13.2,33,13.2z M39.3,13.2c-0.2,0-0.4,0.1-0.6,0.2
	c-0.2,0.1-0.3,0.3-0.4,0.5c-0.1,0.2-0.1,0.4-0.1,0.6c0,0.2,0.1,0.4,0.3,0.5c0.1,0.1,0.3,0.2,0.5,0.3c0.2,0,0.4,0,0.6-0.1
	c0.2-0.1,0.4-0.2,0.5-0.4c0.1-0.2,0.2-0.4,0.2-0.6c0-0.3-0.1-0.5-0.3-0.7C39.9,13.4,39.6,13.2,39.3,13.2z M41.4,8H30.9
	c-1.4,0-2.7,0.6-3.7,1.5c-1,1-1.5,2.3-1.5,3.7v10.5c0,1.4,0.6,2.7,1.5,3.7s2.3,1.5,3.7,1.5h10.5c1.4,0,2.7-0.6,3.7-1.5
	s1.5-2.3,1.5-3.7V13.2c0-1.4-0.6-2.7-1.5-3.7C44.2,8.6,42.8,8,41.4,8z M44.6,23.8c0,0.8-0.3,1.6-0.9,2.2c-0.6,0.6-1.4,0.9-2.2,0.9
	H30.9c-0.8,0-1.6-0.3-2.2-0.9c-0.6-0.6-0.9-1.4-0.9-2.2V13.2c0-0.8,0.3-1.6,0.9-2.2c0.6-0.6,1.4-0.9,2.2-0.9h10.5
	c0.8,0,1.6,0.3,2.2,0.9c0.6,0.6,0.9,1.4,0.9,2.2V23.8z M39.3,17.5c-0.2,0-0.4,0.1-0.6,0.2c-0.2,0.1-0.3,0.3-0.4,0.5
	c-0.1,0.2-0.1,0.4-0.1,0.6c0,0.2,0.1,0.4,0.3,0.5c0.1,0.1,0.3,0.2,0.5,0.3c0.2,0,0.4,0,0.6-0.1c0.2-0.1,0.4-0.2,0.5-0.4
	c0.1-0.2,0.2-0.4,0.2-0.6c0-0.3-0.1-0.5-0.3-0.7C39.9,17.6,39.6,17.5,39.3,17.5z M39.3,21.6c-0.2,0-0.4,0.1-0.6,0.2
	c-0.2,0.1-0.3,0.3-0.4,0.5c-0.1,0.2-0.1,0.4-0.1,0.6c0,0.2,0.1,0.4,0.3,0.5c0.1,0.1,0.3,0.2,0.5,0.3c0.2,0,0.4,0,0.6-0.1
	c0.2-0.1,0.4-0.2,0.5-0.4c0.1-0.2,0.2-0.4,0.2-0.6c0-0.3-0.1-0.5-0.3-0.7C39.9,21.8,39.6,21.6,39.3,21.6z"/>
</svg>
